<?xml version="1.0" standalone="no"?>
<!DOCTYPE svg PUBLIC "-//W3C//DTD SVG 20010904//EN"
 "http://www.w3.org/TR/2001/REC-SVG-20010904/DTD/svg10.dtd">
<svg version="1.0" xmlns="http://www.w3.org/2000/svg"
 width="512.000000pt" height="512.000000pt" viewBox="0 0 512.000000 512.000000"
 preserveAspectRatio="xMidYMid meet">
<metadata>
Created by potrace 1.11, written by Peter Selinger 2001-2013
</metadata>
<g transform="translate(0.000000,512.000000) scale(0.100000,-0.100000)"
fill="#000000" stroke="none">
<path d="M3170 4481 c-7 -14 -41 -100 -77 -191 -36 -91 -70 -176 -76 -190 -5
-14 -11 -30 -12 -35 -3 -10 -58 -150 -76 -190 -4 -11 -22 -56 -40 -100 -17
-44 -36 -93 -44 -110 -7 -16 -18 -46 -25 -65 -7 -19 -19 -48 -26 -65 -6 -16
-46 -118 -88 -225 -42 -107 -81 -203 -86 -212 -6 -10 -10 -23 -10 -29 0 -6 -7
-25 -15 -42 -8 -18 -28 -68 -45 -112 -17 -44 -37 -93 -44 -110 -8 -16 -17 -41
-21 -55 -4 -14 -15 -38 -23 -55 -9 -16 -16 -32 -17 -35 0 -3 -16 -34 -35 -69
-45 -83 -107 -146 -178 -179 -52 -25 -67 -27 -177 -27 -103 1 -133 5 -210 29
-159 50 -293 124 -379 210 -98 99 -137 194 -131 323 4 80 11 128 30 191 8 25
12 49 9 53 -3 6 -138 54 -179 64 -5 1 -17 5 -25 8 -14 5 -173 55 -227 71 -20
6 -24 0 -48 -76 -14 -46 -29 -101 -32 -123 -3 -22 -9 -49 -12 -60 -8 -23 -7
-105 3 -150 3 -16 8 -43 12 -60 9 -48 36 -125 45 -131 5 -3 7 -10 4 -15 -4 -5
-1 -9 4 -9 6 0 11 -5 11 -11 0 -6 21 -42 46 -80 54 -80 183 -207 269 -264 33
-22 61 -43 63 -47 2 -5 7 -8 12 -8 4 0 43 -20 86 -45 44 -25 122 -63 174 -86
52 -22 109 -47 125 -54 33 -14 174 -56 245 -73 25 -6 56 -13 70 -17 50 -12
157 -19 265 -18 109 0 190 15 271 49 21 9 39 15 39 13 0 -8 123 82 149 110 35
36 95 45 97 14 2 -63 0 -113 -5 -122 -4 -6 -4 -11 1 -11 4 0 7 -116 5 -257 -1
-142 -3 -265 -2 -273 2 -312 1 -410 -4 -419 -4 -6 -4 -11 1 -11 4 0 8 -111 8
-247 l0 -248 223 0 223 0 0 803 0 802 259 0 260 0 0 123 0 122 -258 0 -257 0
0 130 c0 143 13 196 63 247 30 32 109 64 179 73 64 8 233 8 308 0 72 -8 67 -8
81 -6 10 1 17 21 31 85 2 11 11 47 19 80 9 34 17 66 18 71 1 6 5 16 9 23 5 7
3 12 -5 13 -7 1 -24 2 -38 4 -110 12 -159 16 -257 20 -61 3 -115 5 -120 6 -4
1 -10 1 -13 0 -3 -1 -48 -4 -100 -6 -111 -6 -139 -9 -200 -23 -24 -6 -46 -9
-48 -7 -2 2 30 88 71 192 41 103 96 242 122 308 25 66 50 129 55 140 5 11 28
67 50 125 22 58 45 113 50 122 6 10 10 22 10 28 0 6 9 29 19 53 11 23 27 65
37 92 10 28 23 53 28 57 6 4 -21 21 -59 38 -39 17 -78 35 -87 40 -10 6 -22 10
-28 10 -5 0 -37 13 -70 29 -34 17 -78 35 -98 42 -20 7 -60 24 -89 39 l-51 27
-12 -26z"/>
</g>
</svg>
